<svg xmlns="http://www.w3.org/2000/svg" xmlns:xlink="http://www.w3.org/1999/xlink" width="40" zoomAndPan="magnify" viewBox="0 0 30 30.000001" height="40" preserveAspectRatio="xMidYMid meet" version="1.2"><defs><clipPath id="de8eb30cea"><path d="M 0.484375 3 L 29.515625 3 L 29.515625 26 L 0.484375 26 Z M 0.484375 3 "/></clipPath></defs><g id="939a7e2dcc"><g clip-rule="nonzero" clip-path="url(#de8eb30cea)"><path style=" stroke:none;fill-rule:nonzero;fill:#000000;fill-opacity:1;" d="M 34.179688 25.582031 C 34.222656 25.582031 34.222656 25.625 34.179688 25.664062 C 34.179688 25.707031 34.140625 25.707031 34.097656 25.664062 C 33.441406 25.171875 32.828125 24.679688 32.171875 24.230469 C 31.558594 23.777344 30.902344 23.328125 30.285156 22.917969 C 29.671875 22.507812 29.058594 22.140625 28.441406 21.933594 C 27.867188 21.730469 27.292969 21.605469 26.800781 21.769531 C 26.636719 21.8125 26.472656 21.894531 26.3125 21.976562 C 26.3125 22.304688 26.269531 22.632812 26.148438 23 C 26.023438 23.410156 25.820312 23.941406 25.574219 24.351562 C 25.367188 24.761719 25.121094 25.050781 24.917969 25.214844 C 24.835938 25.253906 24.753906 25.296875 24.671875 25.296875 C 24.589844 25.296875 24.507812 25.253906 24.464844 25.171875 C 24.425781 25.132812 24.382812 25.007812 24.34375 24.925781 C 24.300781 24.722656 24.34375 24.394531 24.464844 23.984375 C 24.628906 23.492188 25 22.917969 25.449219 22.46875 C 25.65625 22.261719 25.902344 22.058594 26.148438 21.894531 C 26.148438 21.6875 26.148438 21.484375 26.105469 21.277344 C 26.105469 21.15625 26.105469 21.074219 26.105469 20.949219 C 26.105469 20.582031 26.105469 20.214844 26.105469 19.761719 C 26.105469 19.351562 26.105469 18.902344 26.148438 18.410156 L 26.148438 18.367188 C 26.1875 17.46875 26.1875 16.523438 26.023438 15.949219 C 25.902344 15.539062 25.613281 15.335938 25.246094 15.050781 C 25.121094 14.96875 25 14.886719 24.875 14.761719 C 24.589844 14.515625 24.261719 14.230469 23.933594 13.941406 C 23.605469 13.65625 23.320312 13.367188 23.03125 13.164062 C 22.785156 12.957031 22.582031 12.835938 22.335938 12.753906 C 22.089844 12.671875 21.84375 12.589844 21.515625 12.507812 C 21.144531 12.425781 20.738281 12.34375 20.285156 12.261719 C 19.875 12.179688 19.464844 12.140625 19.179688 12.097656 C 18.933594 12.097656 18.769531 12.140625 18.726562 12.179688 C 18.6875 12.222656 18.6875 12.304688 18.769531 12.386719 C 18.808594 12.507812 18.933594 12.589844 19.054688 12.710938 C 19.179688 12.835938 19.34375 12.917969 19.464844 13.039062 C 19.628906 13.121094 19.792969 13.203125 19.957031 13.246094 C 20.121094 13.285156 20.246094 13.285156 20.367188 13.285156 C 20.53125 13.246094 20.613281 13.164062 20.695312 13.121094 C 20.738281 13.082031 20.777344 13.039062 20.820312 13.039062 C 20.820312 13.039062 20.859375 13.039062 20.859375 13.039062 C 20.898438 13.039062 20.898438 13.082031 20.898438 13.121094 C 20.898438 13.164062 20.898438 13.164062 20.898438 13.203125 C 20.859375 13.285156 20.820312 13.367188 20.738281 13.410156 C 20.695312 13.449219 20.65625 13.449219 20.613281 13.492188 C 20.574219 13.492188 20.574219 13.492188 20.574219 13.492188 C 20.574219 13.492188 20.613281 13.492188 20.613281 13.492188 C 20.738281 13.574219 20.941406 13.65625 21.1875 13.738281 C 21.390625 13.820312 21.597656 13.859375 21.761719 13.859375 C 22.046875 13.902344 22.253906 13.820312 22.417969 13.777344 C 22.5 13.777344 22.539062 13.738281 22.582031 13.777344 C 22.582031 13.777344 22.621094 13.777344 22.621094 13.820312 C 22.621094 13.859375 22.621094 13.859375 22.621094 13.902344 C 22.621094 13.902344 22.582031 13.941406 22.582031 13.941406 C 22.5 14.023438 22.375 14.105469 22.253906 14.105469 C 22.171875 14.105469 22.128906 14.105469 22.089844 14.105469 C 22.046875 14.105469 22.007812 14.105469 22.007812 14.105469 C 22.007812 14.105469 22.007812 14.105469 22.046875 14.1875 C 22.128906 14.3125 22.292969 14.515625 22.5 14.761719 C 22.664062 14.925781 22.828125 15.089844 22.992188 15.171875 C 23.113281 15.253906 23.195312 15.292969 23.277344 15.292969 C 23.277344 15.292969 23.277344 15.292969 23.320312 15.292969 C 23.359375 15.253906 23.441406 15.253906 23.484375 15.253906 C 23.523438 15.253906 23.566406 15.253906 23.605469 15.253906 C 23.605469 15.253906 23.648438 15.292969 23.648438 15.292969 C 23.648438 15.292969 23.648438 15.335938 23.648438 15.335938 C 23.648438 15.375 23.605469 15.375 23.566406 15.417969 C 23.523438 15.417969 23.484375 15.417969 23.441406 15.417969 C 23.402344 15.417969 23.359375 15.417969 23.277344 15.417969 C 23.238281 15.457031 23.195312 15.5 23.15625 15.539062 C 23.113281 15.664062 23.074219 15.828125 23.113281 15.992188 C 23.113281 16.15625 23.195312 16.320312 23.277344 16.402344 C 23.359375 16.484375 23.484375 16.523438 23.523438 16.566406 C 23.566406 16.566406 23.605469 16.605469 23.648438 16.605469 C 23.6875 16.648438 23.6875 16.6875 23.648438 16.730469 C 23.605469 16.8125 23.402344 16.933594 23.113281 17.015625 C 22.949219 17.058594 22.746094 17.097656 22.539062 17.058594 C 22.292969 17.015625 22.046875 16.894531 21.761719 16.6875 C 21.515625 16.484375 21.269531 16.277344 21.023438 15.992188 C 20.898438 15.867188 20.777344 15.703125 20.65625 15.582031 C 20.285156 15.171875 19.957031 14.761719 19.589844 14.558594 C 19.382812 14.433594 19.136719 14.394531 18.933594 14.351562 C 18.6875 14.351562 18.480469 14.394531 18.359375 14.476562 C 18.398438 14.476562 18.441406 14.476562 18.480469 14.476562 C 18.480469 14.476562 18.523438 14.476562 18.523438 14.476562 C 18.6875 14.476562 18.890625 14.558594 19.015625 14.640625 C 19.136719 14.722656 19.261719 14.84375 19.261719 14.96875 C 19.261719 14.96875 19.261719 15.007812 19.261719 15.007812 C 19.261719 15.132812 19.21875 15.253906 19.136719 15.375 C 19.054688 15.5 18.933594 15.582031 18.808594 15.621094 C 18.808594 15.621094 18.769531 15.621094 18.769531 15.621094 C 18.6875 15.621094 18.5625 15.621094 18.441406 15.582031 C 18.480469 15.621094 18.480469 15.621094 18.523438 15.664062 L 18.5625 15.703125 C 18.890625 16.03125 19.261719 16.359375 19.546875 16.8125 C 19.589844 16.894531 19.671875 17.015625 19.710938 17.097656 C 19.835938 17.097656 20 17.140625 20.164062 17.261719 C 20.492188 17.425781 20.898438 17.796875 21.308594 18.285156 C 21.679688 18.695312 22.007812 19.148438 22.253906 19.679688 C 22.621094 20.417969 22.867188 21.195312 23.03125 21.894531 C 23.15625 22.261719 23.238281 22.632812 23.359375 22.917969 C 23.523438 23.371094 23.726562 23.695312 23.851562 23.859375 C 23.933594 23.984375 23.933594 24.023438 23.933594 24.066406 C 23.890625 24.105469 23.851562 24.105469 23.769531 24.023438 C 23.605469 23.902344 23.238281 23.574219 22.785156 23.164062 C 22.5 22.878906 22.210938 22.589844 21.964844 22.261719 C 21.636719 21.851562 21.390625 21.441406 21.1875 21.03125 C 20.980469 20.625 20.820312 20.253906 20.695312 19.96875 C 20.53125 19.558594 20.449219 19.269531 20.328125 18.984375 C 20.285156 18.820312 20.203125 18.65625 20.164062 18.449219 C 20.082031 18.203125 19.957031 17.917969 19.835938 17.671875 C 19.753906 17.550781 19.710938 17.386719 19.628906 17.261719 C 19.464844 17.261719 19.34375 17.34375 19.261719 17.425781 C 19.21875 17.46875 19.179688 17.46875 19.136719 17.507812 C 19.015625 17.589844 18.851562 17.632812 18.6875 17.632812 C 18.523438 17.632812 18.398438 17.589844 18.316406 17.550781 C 18.316406 17.550781 18.316406 17.550781 18.277344 17.507812 C 18.195312 17.425781 18.152344 17.34375 18.152344 17.261719 C 18.152344 17.179688 18.152344 17.058594 18.234375 16.976562 C 18.234375 16.976562 18.234375 16.933594 18.277344 16.933594 C 18.359375 16.851562 18.441406 16.8125 18.523438 16.769531 C 18.5625 16.730469 18.5625 16.730469 18.605469 16.6875 C 18.726562 16.566406 18.851562 16.441406 18.890625 16.359375 C 18.890625 16.277344 18.851562 16.238281 18.808594 16.15625 C 18.726562 16.074219 18.605469 16.03125 18.480469 16.03125 C 18.277344 15.992188 18.074219 16.03125 17.828125 16.074219 C 17.703125 16.074219 17.582031 16.113281 17.5 16.113281 C 17.335938 16.113281 17.210938 16.113281 17.128906 16.074219 C 17.007812 16.03125 16.964844 15.992188 16.882812 15.910156 C 16.84375 15.828125 16.800781 15.703125 16.84375 15.582031 C 16.84375 15.539062 16.882812 15.457031 16.925781 15.417969 C 16.925781 15.417969 16.925781 15.417969 16.925781 15.375 C 16.925781 15.292969 16.964844 15.214844 17.046875 15.132812 C 16.925781 15.214844 16.761719 15.292969 16.636719 15.292969 C 16.515625 15.335938 16.390625 15.292969 16.308594 15.214844 C 16.226562 15.132812 16.1875 15.007812 16.105469 14.886719 C 16.023438 14.761719 15.941406 14.597656 15.898438 14.433594 C 15.859375 14.351562 15.859375 14.230469 15.859375 14.148438 C 15.695312 14.023438 15.570312 13.902344 15.449219 13.777344 L 15.40625 13.738281 C 15.449219 13.777344 15.449219 13.859375 15.449219 13.941406 C 15.449219 14.066406 15.40625 14.148438 15.367188 14.230469 C 15.285156 14.3125 15.121094 14.3125 14.957031 14.3125 C 14.875 14.3125 14.792969 14.3125 14.753906 14.3125 C 14.710938 14.3125 14.710938 14.3125 14.710938 14.351562 C 14.710938 14.351562 14.671875 14.394531 14.671875 14.394531 C 14.671875 14.433594 14.671875 14.433594 14.671875 14.476562 C 14.671875 14.515625 14.710938 14.597656 14.753906 14.679688 C 14.792969 14.761719 14.875 14.886719 14.957031 14.96875 C 15.121094 15.171875 15.285156 15.417969 15.328125 15.582031 C 15.367188 15.746094 15.328125 15.867188 15.203125 15.949219 C 15.121094 16.03125 14.957031 16.113281 14.792969 16.195312 C 14.753906 16.195312 14.710938 16.238281 14.671875 16.238281 C 14.382812 16.359375 14.054688 16.484375 13.972656 16.648438 C 13.933594 16.730469 14.015625 16.851562 14.097656 16.933594 C 14.136719 17.015625 14.21875 17.058594 14.21875 17.140625 C 14.261719 17.261719 14.21875 17.34375 14.179688 17.425781 C 14.136719 17.507812 14.054688 17.550781 13.933594 17.589844 C 13.933594 17.589844 13.933594 17.589844 13.890625 17.589844 C 13.769531 17.632812 13.644531 17.632812 13.5625 17.632812 C 13.441406 17.632812 13.359375 17.589844 13.277344 17.507812 C 13.195312 17.425781 13.234375 17.304688 13.277344 17.222656 C 13.277344 17.179688 13.316406 17.097656 13.316406 17.058594 C 13.316406 16.976562 13.277344 16.933594 13.277344 16.894531 C 13.234375 16.851562 13.195312 16.8125 13.152344 16.8125 C 13.070312 16.8125 12.949219 16.851562 12.742188 16.933594 C 12.703125 16.933594 12.660156 16.976562 12.660156 16.976562 C 12.539062 17.015625 12.417969 17.097656 12.253906 17.140625 C 12.089844 17.179688 11.964844 17.222656 11.800781 17.222656 C 11.679688 17.222656 11.554688 17.179688 11.472656 17.140625 C 11.351562 17.058594 11.308594 16.976562 11.226562 16.894531 C 11.1875 16.8125 11.144531 16.6875 11.144531 16.648438 C 11.144531 16.566406 11.1875 16.484375 11.269531 16.441406 C 11.308594 16.402344 11.390625 16.402344 11.515625 16.402344 C 11.597656 16.402344 11.679688 16.402344 11.71875 16.359375 C 11.761719 16.320312 11.84375 16.277344 11.84375 16.195312 C 11.882812 16.113281 11.882812 16.03125 11.84375 15.949219 C 11.800781 15.867188 11.71875 15.746094 11.636719 15.664062 C 11.554688 15.582031 11.472656 15.539062 11.390625 15.582031 C 11.308594 15.582031 11.226562 15.664062 11.144531 15.703125 C 11.105469 15.746094 11.105469 15.746094 11.0625 15.746094 C 11.105469 15.828125 11.144531 15.910156 11.1875 15.992188 C 11.226562 16.15625 11.1875 16.277344 11.144531 16.402344 C 11.105469 16.484375 11.023438 16.566406 10.980469 16.605469 C 10.980469 16.605469 10.941406 16.605469 10.941406 16.648438 C 10.941406 16.648438 10.898438 16.648438 10.898438 16.6875 C 10.898438 16.6875 10.898438 16.6875 10.859375 16.6875 C 10.734375 16.730469 10.613281 16.6875 10.488281 16.6875 C 10.367188 16.648438 10.203125 16.566406 10.121094 16.484375 C 10.078125 16.441406 10.039062 16.402344 9.996094 16.359375 C 9.957031 16.320312 9.957031 16.277344 9.914062 16.238281 C 9.792969 16.15625 9.671875 16.074219 9.507812 16.03125 C 9.300781 15.910156 9.054688 15.828125 8.769531 15.703125 C 8.6875 15.746094 8.480469 15.828125 8.277344 15.867188 C 8.195312 15.867188 8.152344 15.910156 8.070312 15.910156 C 8.03125 15.910156 7.988281 15.910156 7.988281 15.949219 C 7.703125 16.03125 7.414062 16.113281 6.925781 15.992188 C 6.679688 15.910156 6.308594 15.828125 5.980469 15.664062 C 5.570312 15.5 5.160156 15.292969 4.75 15.089844 C 4.339844 14.886719 3.972656 14.679688 3.644531 14.433594 C 3.316406 14.1875 3.03125 13.984375 2.867188 13.738281 C 2.578125 13.328125 2.578125 12.917969 2.578125 12.425781 C 2.578125 12.34375 2.578125 12.222656 2.578125 12.140625 C 2.578125 11.894531 2.539062 11.605469 2.539062 11.277344 C 2.496094 10.910156 2.496094 10.5 2.496094 10.171875 C 2.496094 9.964844 2.539062 9.761719 2.539062 9.597656 C 2.496094 9.640625 2.414062 9.679688 2.332031 9.71875 C 2.25 9.761719 2.167969 9.761719 2.085938 9.761719 C 1.757812 9.761719 1.308594 9.640625 0.859375 9.351562 C 0.488281 9.105469 0.121094 8.777344 -0.125 8.328125 C -0.453125 7.792969 -0.617188 7.179688 -0.660156 6.523438 C -0.699219 5.910156 -0.617188 5.292969 -0.332031 4.800781 C -0.0859375 4.308594 0.324219 3.941406 0.816406 3.65625 C 1.351562 3.367188 1.921875 3.203125 2.457031 3.203125 C 2.949219 3.203125 3.316406 3.367188 3.6875 3.613281 C 4.015625 3.859375 4.339844 4.148438 4.585938 4.472656 C 4.875 4.800781 5.121094 5.171875 5.285156 5.5 C 5.449219 5.867188 5.570312 6.195312 5.53125 6.484375 C 5.53125 6.605469 5.488281 6.769531 5.40625 6.894531 C 5.488281 6.933594 5.53125 6.933594 5.613281 6.972656 C 5.980469 7.136719 6.269531 7.382812 6.636719 7.753906 C 7.007812 8.121094 7.375 8.574219 7.785156 9.023438 C 8.152344 9.476562 8.523438 9.882812 8.851562 10.210938 C 9.300781 10.664062 9.710938 10.949219 9.996094 11.15625 C 10.121094 11.238281 10.203125 11.320312 10.324219 11.359375 C 10.488281 11.484375 10.570312 11.605469 10.695312 11.730469 C 10.816406 11.851562 10.941406 12.015625 11.144531 12.140625 C 11.308594 12.261719 11.554688 12.425781 11.800781 12.546875 C 11.964844 12.628906 12.089844 12.710938 12.210938 12.792969 C 12.375 12.875 12.539062 12.957031 12.703125 13.082031 C 12.742188 13.121094 12.785156 13.121094 12.824219 13.164062 C 12.90625 13.039062 13.070312 12.835938 13.234375 12.671875 C 13.398438 12.546875 13.5625 12.464844 13.6875 12.464844 C 13.933594 12.464844 14.054688 12.753906 14.136719 13.039062 C 14.179688 13.121094 14.179688 13.164062 14.21875 13.246094 C 14.261719 13.367188 14.34375 13.449219 14.382812 13.53125 C 14.425781 13.574219 14.507812 13.613281 14.546875 13.613281 C 14.589844 13.613281 14.628906 13.574219 14.671875 13.492188 C 14.710938 13.449219 14.753906 13.367188 14.792969 13.328125 C 14.875 13.285156 14.957031 13.246094 15.039062 13.285156 C 15.121094 13.328125 15.246094 13.367188 15.367188 13.492188 C 15.449219 13.53125 15.53125 13.613281 15.613281 13.695312 C 15.734375 13.777344 15.816406 13.902344 15.941406 13.984375 C 15.980469 13.859375 16.105469 13.820312 16.269531 13.777344 C 16.351562 13.738281 16.472656 13.695312 16.515625 13.65625 C 16.554688 13.574219 16.597656 13.492188 16.597656 13.367188 C 16.597656 13.246094 16.554688 13.121094 16.472656 13.039062 C 16.433594 13 16.351562 12.957031 16.269531 12.957031 C 16.144531 12.957031 16.0625 13 15.980469 13.039062 C 15.941406 13.039062 15.941406 13.082031 15.898438 13.082031 C 15.734375 13.164062 15.652344 13.246094 15.488281 13 C 15.40625 12.875 15.328125 12.710938 15.246094 12.507812 C 15.164062 12.304688 15.082031 12.058594 15.039062 11.894531 C 15 11.730469 15 11.605469 15.039062 11.484375 C 15.082031 11.359375 15.164062 11.320312 15.285156 11.238281 C 15.40625 11.15625 15.652344 11.113281 15.816406 11.074219 C 15.980469 11.03125 16.144531 11.03125 16.226562 11.074219 C 16.390625 11.15625 16.390625 11.277344 16.390625 11.402344 C 16.390625 11.484375 16.390625 11.566406 16.433594 11.605469 C 16.472656 11.648438 16.515625 11.6875 16.597656 11.730469 C 16.679688 11.769531 16.800781 11.730469 16.925781 11.730469 C 17.046875 11.6875 17.128906 11.648438 17.171875 11.566406 C 17.210938 11.484375 17.253906 11.441406 17.253906 11.359375 C 17.253906 11.320312 17.210938 11.238281 17.171875 11.195312 C 17.089844 11.074219 17.007812 10.949219 17.128906 10.785156 C 17.210938 10.703125 17.375 10.621094 17.539062 10.582031 C 17.746094 10.5 17.992188 10.457031 18.195312 10.417969 C 18.359375 10.417969 18.480469 10.417969 18.5625 10.457031 C 18.644531 10.5 18.726562 10.621094 18.769531 10.746094 C 18.851562 10.910156 18.933594 11.113281 18.972656 11.277344 C 19.015625 11.441406 19.015625 11.566406 18.972656 11.648438 C 18.890625 11.769531 18.769531 11.8125 18.605469 11.8125 C 18.523438 11.8125 18.441406 11.851562 18.359375 11.851562 C 18.277344 11.894531 18.234375 11.976562 18.195312 12.058594 C 18.152344 12.140625 18.152344 12.261719 18.234375 12.34375 C 18.277344 12.425781 18.359375 12.546875 18.480469 12.589844 C 18.605469 12.671875 18.6875 12.710938 18.808594 12.710938 C 18.890625 12.710938 18.972656 12.710938 19.054688 12.710938 C 19.097656 12.710938 19.179688 12.710938 19.21875 12.710938 C 19.179688 12.671875 19.136719 12.628906 19.054688 12.589844 C 18.933594 12.464844 18.808594 12.34375 18.769531 12.222656 C 18.6875 12.097656 18.6875 11.976562 18.769531 11.851562 C 18.851562 11.769531 19.015625 11.730469 19.300781 11.730469 C 19.589844 11.730469 20 11.8125 20.449219 11.894531 C 20.898438 11.976562 21.308594 12.058594 21.679688 12.140625 C 22.046875 12.222656 22.292969 12.261719 22.539062 12.386719 C 22.785156 12.464844 22.992188 12.589844 23.277344 12.835938 C 23.523438 13.039062 23.851562 13.328125 24.179688 13.613281 C 24.507812 13.902344 24.835938 14.230469 25.121094 14.433594 C 25.246094 14.558594 25.367188 14.640625 25.492188 14.722656 C 25.902344 15.007812 26.1875 15.214844 26.3125 15.664062 C 26.515625 16.238281 26.472656 17.179688 26.433594 18.121094 L 26.433594 18.164062 C 26.433594 18.613281 26.394531 19.066406 26.394531 19.515625 C 26.394531 19.925781 26.394531 20.335938 26.394531 20.707031 C 26.394531 20.828125 26.394531 20.910156 26.394531 21.03125 C 26.394531 21.238281 26.433594 21.402344 26.433594 21.605469 C 26.597656 21.523438 26.761719 21.441406 26.925781 21.402344 C 27.457031 21.277344 28.03125 21.359375 28.648438 21.566406 C 29.261719 21.8125 29.875 22.140625 30.492188 22.550781 C 31.105469 22.960938 31.761719 23.410156 32.375 23.859375 C 32.992188 24.3125 33.648438 24.804688 34.304688 25.296875 Z M 26.1875 22.015625 C 25.984375 22.140625 25.738281 22.34375 25.574219 22.550781 C 25.121094 23 24.792969 23.574219 24.628906 24.023438 C 24.507812 24.394531 24.464844 24.679688 24.507812 24.886719 C 24.507812 24.96875 24.546875 25.050781 24.589844 25.089844 C 24.628906 25.132812 24.671875 25.132812 24.710938 25.171875 C 24.753906 25.171875 24.835938 25.171875 24.875 25.089844 C 25.082031 24.96875 25.285156 24.640625 25.492188 24.269531 C 25.738281 23.859375 25.941406 23.371094 26.066406 22.960938 C 26.1875 22.632812 26.230469 22.304688 26.230469 22.058594 Z M 19.917969 13.367188 C 19.753906 13.328125 19.589844 13.246094 19.425781 13.164062 C 19.464844 13.203125 19.464844 13.246094 19.507812 13.328125 C 19.546875 13.492188 19.589844 13.695312 19.628906 13.820312 C 19.628906 13.941406 19.628906 14.023438 19.589844 14.105469 C 19.546875 14.1875 19.464844 14.230469 19.34375 14.269531 C 19.261719 14.3125 19.097656 14.351562 18.972656 14.394531 C 19.136719 14.433594 19.34375 14.476562 19.507812 14.597656 C 19.875 14.804688 20.246094 15.253906 20.613281 15.664062 C 20.738281 15.785156 20.859375 15.949219 20.980469 16.074219 C 21.226562 16.320312 21.472656 16.566406 21.71875 16.769531 C 21.964844 16.933594 22.210938 17.058594 22.417969 17.097656 C 22.621094 17.140625 22.785156 17.097656 22.949219 17.058594 C 23.15625 16.976562 23.359375 16.894531 23.402344 16.8125 C 23.402344 16.8125 23.359375 16.8125 23.359375 16.8125 C 23.277344 16.769531 23.15625 16.730469 23.03125 16.605469 C 22.949219 16.484375 22.867188 16.320312 22.867188 16.113281 C 22.867188 15.910156 22.867188 15.746094 22.949219 15.621094 C 22.992188 15.582031 22.992188 15.539062 23.03125 15.5 C 22.949219 15.457031 22.867188 15.417969 22.785156 15.375 C 22.621094 15.253906 22.417969 15.089844 22.253906 14.925781 C 22.046875 14.722656 21.84375 14.476562 21.800781 14.351562 C 21.71875 14.230469 21.761719 14.148438 21.800781 14.105469 C 21.84375 14.066406 21.882812 14.066406 21.964844 14.066406 C 22.007812 14.066406 22.089844 14.066406 22.128906 14.066406 C 22.210938 14.066406 22.292969 14.023438 22.335938 13.984375 C 22.210938 14.023438 21.964844 14.066406 21.679688 14.023438 C 21.472656 14.023438 21.269531 13.941406 21.105469 13.902344 C 20.859375 13.820312 20.613281 13.695312 20.492188 13.65625 C 20.367188 13.574219 20.367188 13.53125 20.410156 13.492188 C 20.410156 13.449219 20.449219 13.449219 20.53125 13.410156 C 20.574219 13.410156 20.613281 13.367188 20.65625 13.367188 C 20.695312 13.328125 20.738281 13.285156 20.738281 13.246094 C 20.65625 13.328125 20.53125 13.367188 20.410156 13.410156 C 20.285156 13.449219 20.121094 13.410156 19.957031 13.367188 Z M 18.152344 14.515625 C 18.195312 14.515625 18.195312 14.476562 18.234375 14.476562 C 18.234375 14.476562 18.195312 14.476562 18.195312 14.476562 C 18.113281 14.433594 18.074219 14.351562 18.074219 14.269531 C 18.074219 14.230469 18.03125 14.230469 18.03125 14.1875 C 17.992188 14.066406 17.949219 13.902344 17.828125 13.859375 C 17.746094 13.859375 17.664062 13.859375 17.582031 13.902344 C 17.5 13.941406 17.417969 13.984375 17.417969 14.066406 C 17.417969 14.105469 17.417969 14.1875 17.417969 14.269531 C 17.457031 14.394531 17.457031 14.515625 17.335938 14.597656 C 17.253906 14.679688 17.046875 14.679688 16.800781 14.679688 C 16.597656 14.640625 16.390625 14.597656 16.1875 14.515625 C 16.0625 14.476562 15.980469 14.394531 15.859375 14.3125 C 15.859375 14.351562 15.898438 14.394531 15.898438 14.433594 C 15.941406 14.597656 16.023438 14.761719 16.105469 14.886719 C 16.1875 15.007812 16.226562 15.132812 16.308594 15.171875 C 16.351562 15.214844 16.433594 15.253906 16.515625 15.214844 C 16.679688 15.171875 16.882812 15.050781 17.007812 14.96875 C 17.089844 14.925781 17.128906 14.886719 17.171875 14.886719 C 17.210938 14.886719 17.210938 14.925781 17.210938 14.96875 C 17.210938 15.007812 17.171875 15.050781 17.128906 15.089844 C 17.089844 15.132812 17.007812 15.214844 16.964844 15.292969 C 17.046875 15.253906 17.171875 15.214844 17.253906 15.214844 C 17.417969 15.171875 17.539062 15.214844 17.621094 15.253906 C 17.664062 15.253906 17.664062 15.292969 17.664062 15.292969 C 17.664062 15.335938 17.703125 15.375 17.664062 15.417969 C 17.664062 15.457031 17.621094 15.457031 17.621094 15.5 C 17.582031 15.539062 17.457031 15.582031 17.375 15.621094 C 17.292969 15.664062 17.210938 15.664062 17.089844 15.664062 C 17.007812 15.664062 16.964844 15.664062 16.882812 15.621094 C 16.84375 15.621094 16.84375 15.582031 16.800781 15.582031 C 16.800781 15.621094 16.761719 15.621094 16.761719 15.664062 C 16.71875 15.746094 16.761719 15.828125 16.800781 15.910156 C 16.84375 15.949219 16.882812 15.992188 16.964844 16.03125 C 17.046875 16.074219 17.171875 16.074219 17.292969 16.074219 C 17.375 16.074219 17.5 16.03125 17.621094 16.03125 C 17.867188 15.992188 18.074219 15.949219 18.277344 15.992188 C 18.316406 15.992188 18.316406 15.992188 18.359375 15.992188 L 18.234375 15.910156 C 18.074219 15.746094 17.910156 15.582031 17.785156 15.457031 C 17.664062 15.292969 17.582031 15.171875 17.582031 15.050781 C 17.582031 14.925781 17.664062 14.84375 17.785156 14.761719 C 17.828125 14.679688 17.910156 14.640625 18.03125 14.597656 Z M 17.992188 14.804688 C 17.949219 14.84375 17.949219 14.886719 17.949219 14.925781 C 17.910156 15.050781 17.910156 15.132812 17.992188 15.253906 C 18.03125 15.375 18.152344 15.5 18.316406 15.539062 C 18.441406 15.621094 18.5625 15.664062 18.6875 15.621094 C 18.6875 15.621094 18.726562 15.621094 18.726562 15.621094 C 18.851562 15.582031 18.933594 15.539062 19.015625 15.457031 C 19.097656 15.375 19.097656 15.253906 19.097656 15.171875 C 19.097656 15.171875 19.097656 15.171875 19.097656 15.132812 C 19.054688 15.050781 18.972656 14.925781 18.890625 14.886719 C 18.769531 14.804688 18.605469 14.761719 18.441406 14.761719 C 18.441406 14.761719 18.398438 14.761719 18.398438 14.761719 C 18.277344 14.761719 18.152344 14.804688 18.03125 14.84375 Z M 19.382812 17.015625 C 19.261719 16.8125 19.097656 16.605469 18.933594 16.441406 C 18.933594 16.566406 18.808594 16.6875 18.6875 16.769531 C 18.726562 16.769531 18.769531 16.769531 18.808594 16.769531 C 18.851562 16.769531 18.851562 16.769531 18.851562 16.8125 C 18.890625 16.851562 18.890625 16.894531 18.890625 16.933594 C 18.890625 16.976562 18.890625 17.015625 18.851562 17.058594 C 18.808594 17.097656 18.769531 17.179688 18.726562 17.222656 C 18.644531 17.304688 18.523438 17.386719 18.441406 17.425781 C 18.359375 17.46875 18.316406 17.46875 18.277344 17.46875 C 18.277344 17.507812 18.316406 17.507812 18.316406 17.550781 C 18.398438 17.589844 18.523438 17.632812 18.644531 17.632812 C 18.769531 17.632812 18.890625 17.589844 19.015625 17.507812 C 19.054688 17.46875 19.097656 17.46875 19.136719 17.425781 C 19.261719 17.34375 19.382812 17.261719 19.507812 17.261719 C 19.464844 17.179688 19.425781 17.097656 19.382812 17.015625 Z M 19.753906 17.386719 C 19.792969 17.507812 19.875 17.632812 19.917969 17.753906 C 20.039062 18.039062 20.164062 18.285156 20.246094 18.53125 C 20.328125 18.695312 20.367188 18.859375 20.410156 19.066406 C 20.492188 19.351562 20.613281 19.679688 20.777344 20.050781 C 20.898438 20.378906 21.0625 20.746094 21.269531 21.113281 C 21.472656 21.523438 21.71875 21.933594 22.046875 22.304688 C 22.292969 22.632812 22.582031 22.917969 22.867188 23.207031 C 23.195312 23.535156 23.484375 23.777344 23.6875 23.941406 C 23.566406 23.738281 23.402344 23.453125 23.238281 23.042969 C 23.113281 22.753906 23.03125 22.386719 22.910156 22.015625 C 22.703125 21.320312 22.5 20.542969 22.128906 19.84375 C 21.882812 19.351562 21.515625 18.859375 21.1875 18.492188 C 20.777344 18.039062 20.367188 17.671875 20.039062 17.507812 C 19.917969 17.425781 19.792969 17.386719 19.710938 17.386719 Z M 23.808594 24.105469 C 23.808594 24.105469 23.808594 24.148438 23.808594 24.105469 Z M 18.769531 16.894531 C 18.726562 16.894531 18.605469 16.894531 18.523438 16.933594 C 18.480469 16.976562 18.480469 16.976562 18.441406 17.015625 C 18.359375 17.097656 18.277344 17.222656 18.234375 17.304688 C 18.234375 17.34375 18.234375 17.34375 18.195312 17.386719 C 18.234375 17.386719 18.277344 17.386719 18.359375 17.34375 C 18.441406 17.304688 18.5625 17.222656 18.644531 17.179688 C 18.6875 17.140625 18.726562 17.097656 18.769531 17.058594 C 18.769531 17.015625 18.769531 17.015625 18.769531 17.015625 Z M 17.046875 15.457031 C 17.046875 15.457031 17.046875 15.457031 17.007812 15.457031 C 17.007812 15.457031 17.007812 15.457031 17.046875 15.457031 C 17.089844 15.457031 17.128906 15.5 17.210938 15.5 C 17.292969 15.5 17.375 15.5 17.457031 15.457031 C 17.539062 15.417969 17.621094 15.417969 17.664062 15.375 C 17.664062 15.375 17.703125 15.335938 17.703125 15.335938 C 17.664062 15.292969 17.539062 15.292969 17.375 15.335938 C 17.253906 15.335938 17.128906 15.375 17.046875 15.457031 Z M 17.664062 15.375 Z M 15.898438 14.105469 C 15.898438 14.105469 15.898438 14.148438 15.898438 14.148438 C 16.023438 14.230469 16.144531 14.3125 16.269531 14.394531 C 16.472656 14.476562 16.679688 14.558594 16.84375 14.558594 C 17.046875 14.597656 17.210938 14.558594 17.292969 14.515625 C 17.335938 14.476562 17.335938 14.394531 17.292969 14.3125 C 17.292969 14.230469 17.253906 14.148438 17.292969 14.066406 C 17.335938 13.984375 17.417969 13.902344 17.539062 13.820312 C 17.664062 13.777344 17.785156 13.738281 17.867188 13.777344 C 18.03125 13.820312 18.074219 14.023438 18.152344 14.148438 C 18.152344 14.1875 18.195312 14.1875 18.195312 14.230469 C 18.234375 14.3125 18.234375 14.351562 18.277344 14.351562 C 18.316406 14.394531 18.398438 14.394531 18.480469 14.394531 C 18.605469 14.394531 18.726562 14.351562 18.851562 14.3125 C 19.015625 14.269531 19.179688 14.1875 19.300781 14.148438 C 19.382812 14.105469 19.464844 14.066406 19.507812 14.023438 C 19.546875 13.984375 19.546875 13.941406 19.546875 13.820312 C 19.546875 13.695312 19.507812 13.53125 19.425781 13.367188 C 19.382812 13.246094 19.34375 13.164062 19.261719 13.121094 C 19.179688 13.039062 19.097656 13.082031 18.972656 13.082031 C 18.890625 13.082031 18.769531 13.121094 18.6875 13.082031 C 18.5625 13.082031 18.398438 13 18.277344 12.917969 C 18.152344 12.835938 18.074219 12.710938 17.992188 12.589844 C 17.949219 12.464844 17.949219 12.34375 17.949219 12.222656 C 17.992188 12.097656 18.074219 11.976562 18.152344 11.933594 C 18.234375 11.894531 18.316406 11.894531 18.441406 11.851562 C 18.5625 11.851562 18.6875 11.8125 18.726562 11.730469 C 18.769531 11.648438 18.769531 11.566406 18.726562 11.441406 C 18.6875 11.277344 18.605469 11.074219 18.5625 10.910156 C 18.523438 10.785156 18.480469 10.703125 18.398438 10.664062 C 18.316406 10.621094 18.234375 10.621094 18.113281 10.621094 C 17.949219 10.621094 17.703125 10.703125 17.5 10.746094 C 17.335938 10.785156 17.210938 10.867188 17.128906 10.910156 C 17.046875 10.992188 17.128906 11.074219 17.171875 11.15625 C 17.210938 11.238281 17.253906 11.277344 17.253906 11.359375 C 17.253906 11.484375 17.210938 11.566406 17.171875 11.648438 C 17.089844 11.730469 16.964844 11.8125 16.84375 11.851562 C 16.71875 11.894531 16.597656 11.894531 16.472656 11.851562 C 16.351562 11.8125 16.269531 11.769531 16.226562 11.6875 C 16.1875 11.605469 16.1875 11.523438 16.1875 11.441406 C 16.1875 11.359375 16.1875 11.238281 16.105469 11.195312 C 16.023438 11.15625 15.898438 11.15625 15.734375 11.195312 C 15.570312 11.238281 15.367188 11.277344 15.246094 11.359375 C 15.121094 11.402344 15.082031 11.484375 15.039062 11.523438 C 15 11.605469 15.039062 11.6875 15.082031 11.851562 C 15.121094 12.015625 15.203125 12.261719 15.285156 12.464844 C 15.367188 12.671875 15.449219 12.835938 15.488281 12.917969 C 15.570312 13.039062 15.652344 13 15.734375 12.957031 C 15.777344 12.957031 15.777344 12.917969 15.816406 12.917969 C 15.898438 12.875 16.0625 12.792969 16.1875 12.792969 C 16.269531 12.792969 16.390625 12.835938 16.472656 12.875 C 16.554688 12.957031 16.636719 13.121094 16.636719 13.246094 C 16.636719 13.367188 16.636719 13.53125 16.554688 13.613281 C 16.472656 13.695312 16.351562 13.738281 16.226562 13.777344 C 16.105469 13.820312 16.023438 13.859375 15.980469 13.902344 Z M 15.121094 13.613281 C 15 13.53125 14.917969 13.449219 14.835938 13.449219 C 14.753906 13.449219 14.710938 13.449219 14.671875 13.449219 C 14.628906 13.492188 14.589844 13.53125 14.589844 13.574219 C 14.589844 13.574219 14.589844 13.574219 14.589844 13.613281 C 14.753906 13.613281 14.875 13.574219 15 13.613281 C 15.039062 13.613281 15.082031 13.613281 15.121094 13.65625 Z M 14.179688 13.65625 C 14.097656 13.574219 14.054688 13.492188 13.972656 13.328125 C 13.933594 13.246094 13.933594 13.203125 13.890625 13.121094 C 13.808594 12.875 13.726562 12.628906 13.5625 12.628906 C 13.441406 12.628906 13.316406 12.710938 13.195312 12.835938 C 13.03125 12.957031 12.867188 13.164062 12.824219 13.285156 C 13.03125 13.410156 13.234375 13.53125 13.441406 13.574219 C 13.726562 13.65625 13.972656 13.695312 14.21875 13.65625 Z M 12.742188 13.367188 C 12.742188 13.410156 12.785156 13.449219 12.824219 13.492188 C 12.867188 13.53125 12.90625 13.574219 12.90625 13.613281 C 12.949219 13.695312 12.949219 13.820312 12.90625 13.941406 C 12.867188 14.066406 12.824219 14.148438 12.703125 14.230469 C 12.621094 14.3125 12.457031 14.3125 12.335938 14.351562 C 12.210938 14.351562 12.089844 14.3125 12.007812 14.269531 C 11.925781 14.230469 11.882812 14.148438 11.84375 14.066406 C 11.800781 14.023438 11.800781 13.984375 11.761719 13.941406 C 11.636719 14.023438 11.472656 14.023438 11.308594 14.066406 C 11.1875 14.066406 11.105469 14.066406 10.980469 14.066406 C 10.898438 14.105469 10.859375 14.105469 10.777344 14.148438 C 10.613281 14.230469 10.449219 14.269531 10.324219 14.351562 C 10.203125 14.433594 10.121094 14.515625 10.121094 14.597656 C 10.078125 14.679688 10.121094 14.804688 10.160156 14.925781 C 10.203125 15.050781 10.285156 15.171875 10.367188 15.292969 C 10.570312 15.417969 10.695312 15.582031 10.816406 15.703125 C 10.859375 15.746094 10.898438 15.785156 10.898438 15.828125 C 10.941406 15.828125 10.941406 15.785156 10.980469 15.785156 C 11.0625 15.703125 11.144531 15.664062 11.269531 15.621094 C 11.390625 15.621094 11.472656 15.664062 11.597656 15.746094 C 11.71875 15.828125 11.800781 15.949219 11.84375 16.074219 C 11.882812 16.195312 11.882812 16.277344 11.84375 16.359375 C 11.800781 16.441406 11.71875 16.523438 11.636719 16.566406 C 11.554688 16.605469 11.472656 16.605469 11.390625 16.605469 C 11.308594 16.605469 11.269531 16.605469 11.226562 16.648438 C 11.1875 16.648438 11.1875 16.6875 11.1875 16.769531 C 11.1875 16.8125 11.1875 16.894531 11.226562 16.976562 C 11.269531 17.058594 11.351562 17.140625 11.433594 17.179688 C 11.515625 17.222656 11.597656 17.261719 11.679688 17.261719 C 11.800781 17.261719 11.925781 17.222656 12.089844 17.179688 C 12.210938 17.140625 12.375 17.058594 12.5 17.015625 C 12.539062 16.976562 12.582031 16.976562 12.582031 16.976562 C 12.785156 16.894531 12.90625 16.8125 13.03125 16.851562 C 13.113281 16.851562 13.195312 16.933594 13.234375 16.976562 C 13.277344 17.058594 13.316406 17.140625 13.316406 17.222656 C 13.316406 17.304688 13.316406 17.34375 13.277344 17.425781 C 13.234375 17.507812 13.234375 17.589844 13.277344 17.632812 C 13.316406 17.671875 13.359375 17.671875 13.480469 17.714844 C 13.5625 17.714844 13.6875 17.714844 13.769531 17.671875 C 13.769531 17.671875 13.769531 17.671875 13.808594 17.671875 C 13.890625 17.632812 13.972656 17.589844 14.015625 17.550781 C 14.054688 17.507812 14.054688 17.425781 14.054688 17.386719 C 14.015625 17.34375 13.972656 17.261719 13.933594 17.222656 C 13.851562 17.097656 13.726562 16.933594 13.808594 16.8125 C 13.890625 16.648438 14.261719 16.484375 14.546875 16.359375 C 14.589844 16.359375 14.628906 16.320312 14.671875 16.320312 C 14.835938 16.238281 14.957031 16.195312 15.039062 16.113281 C 15.121094 16.03125 15.164062 15.992188 15.121094 15.867188 C 15.082031 15.703125 14.917969 15.5 14.753906 15.292969 C 14.671875 15.171875 14.589844 15.089844 14.546875 14.96875 C 14.507812 14.886719 14.464844 14.804688 14.464844 14.722656 C 14.464844 14.679688 14.464844 14.597656 14.464844 14.558594 C 14.464844 14.515625 14.507812 14.476562 14.546875 14.433594 C 14.589844 14.433594 14.589844 14.394531 14.628906 14.394531 C 14.710938 14.394531 14.792969 14.394531 14.875 14.394531 C 15 14.394531 15.121094 14.394531 15.203125 14.351562 C 15.246094 14.3125 15.246094 14.230469 15.246094 14.1875 C 15.246094 14.105469 15.203125 14.023438 15.164062 13.984375 C 15.121094 13.941406 15.039062 13.902344 14.957031 13.902344 C 14.835938 13.902344 14.710938 13.902344 14.546875 13.902344 L 14.507812 13.902344 C 14.179688 13.941406 13.769531 13.984375 13.316406 13.820312 C 13.113281 13.738281 12.90625 13.65625 12.742188 13.53125 Z M 12.742188 13.574219 C 12.660156 13.492188 12.582031 13.410156 12.621094 13.285156 C 12.582031 13.246094 12.539062 13.246094 12.457031 13.203125 C 12.5 13.246094 12.5 13.285156 12.5 13.328125 C 12.5 13.367188 12.457031 13.410156 12.417969 13.449219 C 12.375 13.492188 12.335938 13.492188 12.292969 13.492188 C 12.253906 13.492188 12.210938 13.492188 12.171875 13.53125 C 12.171875 13.574219 12.171875 13.613281 12.128906 13.613281 C 12.089844 13.695312 12.007812 13.777344 11.882812 13.859375 C 11.925781 13.902344 11.925781 13.941406 11.964844 13.984375 C 12.007812 14.023438 12.007812 14.105469 12.089844 14.148438 C 12.171875 14.1875 12.253906 14.230469 12.375 14.230469 C 12.5 14.230469 12.582031 14.1875 12.660156 14.148438 C 12.742188 14.105469 12.785156 14.023438 12.824219 13.941406 C 12.867188 13.859375 12.867188 13.777344 12.824219 13.695312 C 12.824219 13.65625 12.785156 13.613281 12.742188 13.574219 Z M 11.761719 13.777344 C 11.800781 13.777344 11.800781 13.777344 11.84375 13.820312 C 11.964844 13.738281 12.046875 13.65625 12.089844 13.613281 C 12.089844 13.613281 12.089844 13.574219 12.089844 13.574219 C 12.089844 13.574219 12.046875 13.574219 12.046875 13.574219 C 11.964844 13.574219 11.882812 13.613281 11.761719 13.65625 C 11.515625 13.738281 11.1875 13.859375 10.859375 13.859375 C 10.816406 13.859375 10.777344 13.859375 10.777344 13.859375 C 10.816406 13.859375 10.816406 13.859375 10.859375 13.859375 C 10.941406 13.859375 10.980469 13.902344 11.0625 13.902344 C 11.1875 13.859375 11.308594 13.820312 11.433594 13.777344 C 11.597656 13.738281 11.71875 13.738281 11.800781 13.738281 Z M 11.636719 13.902344 C 11.554688 13.902344 11.515625 13.902344 11.433594 13.941406 C 11.433594 13.941406 11.390625 13.941406 11.390625 13.941406 C 11.472656 13.941406 11.554688 13.941406 11.636719 13.902344 Z M 10.816406 14.023438 C 10.816406 14.023438 10.816406 14.023438 10.777344 14.023438 C 10.613281 13.984375 10.40625 13.902344 10.242188 13.820312 C 10.160156 13.777344 10.039062 13.777344 9.957031 13.738281 C 9.753906 13.695312 9.546875 13.613281 9.300781 13.613281 C 9.015625 13.574219 8.726562 13.574219 8.441406 13.613281 C 8.277344 13.613281 8.070312 13.65625 7.867188 13.65625 C 7.988281 13.777344 8.152344 13.902344 8.277344 13.984375 C 8.6875 14.3125 9.179688 14.558594 9.589844 14.804688 C 9.792969 14.925781 10.039062 15.050781 10.203125 15.171875 C 10.160156 15.089844 10.121094 15.050781 10.121094 14.96875 C 10.078125 14.84375 10.039062 14.679688 10.078125 14.558594 C 10.121094 14.433594 10.203125 14.351562 10.367188 14.230469 C 10.488281 14.148438 10.652344 14.066406 10.816406 14.023438 Z M 10.613281 15.582031 C 10.652344 15.621094 10.652344 15.664062 10.695312 15.703125 C 10.777344 15.785156 10.816406 15.867188 10.898438 15.867188 C 10.898438 15.828125 10.859375 15.828125 10.816406 15.785156 C 10.777344 15.703125 10.695312 15.664062 10.613281 15.582031 Z M 10.613281 15.746094 C 10.53125 15.621094 10.449219 15.5 10.367188 15.375 C 10.324219 15.335938 10.285156 15.335938 10.242188 15.292969 C 10.039062 15.171875 9.832031 15.050781 9.589844 14.886719 C 9.179688 14.640625 8.6875 14.394531 8.277344 14.066406 C 8.113281 13.941406 7.949219 13.777344 7.785156 13.65625 C 7.703125 13.65625 7.621094 13.65625 7.539062 13.695312 C 7.496094 13.695312 7.457031 13.695312 7.457031 13.65625 C 7.457031 13.613281 7.457031 13.574219 7.496094 13.574219 L 7.621094 13.574219 C 7.539062 13.492188 7.457031 13.449219 7.414062 13.367188 C 7.085938 13.039062 6.84375 12.753906 6.597656 12.464844 C 6.472656 12.34375 6.390625 12.222656 6.308594 12.097656 L 6.308594 12.058594 C 6.0625 12.015625 5.859375 11.976562 5.734375 11.933594 C 5.613281 11.894531 5.570312 11.8125 5.570312 11.730469 C 5.570312 11.6875 5.570312 11.648438 5.570312 11.605469 C 5.570312 11.566406 5.613281 11.523438 5.652344 11.484375 C 5.695312 11.441406 5.777344 11.402344 5.859375 11.402344 C 6.023438 11.441406 6.1875 11.648438 6.390625 11.933594 C 6.71875 11.976562 7.085938 12.015625 7.496094 12.140625 C 8.113281 12.34375 8.726562 12.753906 9.261719 13.082031 C 9.34375 13.121094 9.425781 13.203125 9.507812 13.246094 C 9.792969 13.410156 10.039062 13.574219 10.242188 13.695312 C 10.285156 13.695312 10.285156 13.738281 10.324219 13.738281 C 10.53125 13.777344 10.695312 13.820312 10.898438 13.820312 C 11.226562 13.820312 11.515625 13.695312 11.761719 13.613281 L 11.800781 13.613281 C 11.679688 13.574219 11.515625 13.53125 11.433594 13.492188 C 11.390625 13.449219 11.308594 13.410156 11.269531 13.367188 C 11.1875 13.285156 11.144531 13.203125 11.105469 13.121094 C 11.0625 13.039062 11.0625 12.917969 11.105469 12.875 C 11.105469 12.875 11.105469 12.835938 11.144531 12.835938 C 11.226562 12.753906 11.351562 12.753906 11.515625 12.753906 C 11.515625 12.753906 11.515625 12.753906 11.554688 12.753906 C 11.351562 12.628906 11.144531 12.507812 10.980469 12.386719 C 10.777344 12.222656 10.652344 12.097656 10.53125 11.976562 C 10.40625 11.851562 10.285156 11.730469 10.160156 11.605469 C 10.078125 11.523438 9.957031 11.484375 9.875 11.402344 C 9.589844 11.195312 9.179688 10.949219 8.726562 10.457031 C 8.398438 10.128906 8.03125 9.71875 7.660156 9.269531 C 7.292969 8.820312 6.882812 8.367188 6.515625 8 C 6.1875 7.671875 5.859375 7.382812 5.53125 7.21875 C 5.449219 7.179688 5.367188 7.136719 5.324219 7.136719 C 5.242188 7.261719 5.160156 7.34375 5.078125 7.464844 C 4.832031 7.710938 4.503906 7.917969 4.136719 8.164062 C 3.726562 8.410156 3.277344 8.613281 2.867188 8.777344 C 2.539062 8.902344 2.210938 8.984375 1.921875 8.984375 C 1.757812 8.984375 1.636719 8.941406 1.554688 8.902344 C 1.472656 8.859375 1.390625 8.777344 1.390625 8.695312 C 1.351562 8.613281 1.351562 8.53125 1.390625 8.410156 C 1.433594 8.285156 1.511719 8.164062 1.675781 8 C 1.964844 7.753906 2.414062 7.507812 2.90625 7.34375 C 3.398438 7.136719 3.933594 7.015625 4.382812 6.972656 C 4.710938 6.933594 4.996094 6.972656 5.242188 7.054688 C 5.324219 6.933594 5.367188 6.8125 5.367188 6.6875 C 5.40625 6.402344 5.285156 6.074219 5.121094 5.746094 C 4.957031 5.417969 4.710938 5.046875 4.421875 4.71875 C 4.136719 4.390625 3.851562 4.105469 3.523438 3.859375 C 3.195312 3.65625 2.824219 3.492188 2.375 3.492188 C 1.882812 3.492188 1.308594 3.65625 0.816406 3.941406 C 0.367188 4.1875 -0.0429688 4.554688 -0.289062 5.046875 C -0.535156 5.539062 -0.617188 6.113281 -0.617188 6.730469 C -0.578125 7.34375 -0.371094 8 -0.0859375 8.492188 C 0.160156 8.941406 0.53125 9.269531 0.859375 9.476562 C 1.269531 9.761719 1.71875 9.882812 2.003906 9.882812 C 2.085938 9.882812 2.167969 9.84375 2.210938 9.84375 C 2.375 9.800781 2.457031 9.679688 2.496094 9.597656 C 2.496094 9.558594 2.496094 9.515625 2.539062 9.515625 C 2.539062 9.476562 2.539062 9.433594 2.578125 9.433594 C 2.578125 9.394531 2.621094 9.351562 2.660156 9.394531 C 2.660156 9.394531 2.703125 9.394531 2.703125 9.433594 C 2.703125 9.433594 2.703125 9.433594 2.703125 9.476562 C 2.703125 9.515625 2.703125 9.597656 2.621094 9.679688 C 2.578125 9.84375 2.539062 10.128906 2.539062 10.457031 C 2.539062 10.785156 2.578125 11.15625 2.578125 11.566406 C 2.621094 11.851562 2.621094 12.140625 2.621094 12.425781 C 2.621094 12.546875 2.621094 12.628906 2.621094 12.753906 C 2.621094 13.203125 2.621094 13.613281 2.867188 13.984375 C 3.03125 14.230469 3.277344 14.433594 3.605469 14.640625 C 3.933594 14.84375 4.300781 15.089844 4.710938 15.292969 C 5.121094 15.5 5.570312 15.703125 5.941406 15.867188 C 6.308594 16.03125 6.636719 16.113281 6.882812 16.195312 C 7.375 16.320312 7.621094 16.238281 7.90625 16.15625 C 7.949219 16.15625 7.988281 16.113281 7.988281 16.113281 C 8.03125 16.113281 8.113281 16.074219 8.195312 16.074219 C 8.359375 16.03125 8.480469 15.992188 8.5625 15.992188 L 8.523438 15.949219 C 8.441406 15.949219 8.359375 15.910156 8.277344 15.910156 C 7.949219 15.828125 7.414062 15.746094 6.882812 15.582031 C 6.515625 15.457031 6.144531 15.253906 5.777344 15.089844 C 5.367188 14.886719 5.039062 14.640625 4.875 14.476562 C 4.792969 14.394531 4.75 14.351562 4.710938 14.269531 C 4.710938 14.230469 4.710938 14.1875 4.75 14.148438 C 4.792969 14.148438 4.832031 14.105469 4.875 14.105469 C 4.996094 14.105469 5.160156 14.148438 5.40625 14.269531 C 5.652344 14.394531 5.980469 14.558594 6.351562 14.761719 C 6.71875 14.96875 7.128906 15.214844 7.539062 15.375 C 7.90625 15.539062 8.234375 15.664062 8.5625 15.785156 C 8.605469 15.785156 8.644531 15.828125 8.6875 15.828125 C 8.6875 15.828125 8.726562 15.828125 8.726562 15.867188 C 9.015625 15.992188 9.300781 16.074219 9.507812 16.195312 C 9.628906 16.238281 9.753906 16.320312 9.832031 16.359375 C 9.832031 16.320312 9.832031 16.320312 9.875 16.277344 C 9.875 16.277344 9.875 16.277344 9.914062 16.238281 C 9.957031 16.195312 10.078125 16.195312 10.203125 16.195312 C 10.324219 16.195312 10.449219 16.238281 10.570312 16.320312 C 10.695312 16.359375 10.777344 16.441406 10.859375 16.523438 C 10.898438 16.566406 10.941406 16.648438 10.980469 16.6875 C 10.980469 16.6875 11.023438 16.648438 11.023438 16.648438 C 11.0625 16.566406 11.105469 16.441406 11.0625 16.320312 C 11.0625 16.238281 11.023438 16.15625 10.980469 16.074219 C 10.941406 16.074219 10.941406 16.074219 10.898438 16.074219 C 10.816406 16.074219 10.695312 15.992188 10.613281 15.867188 Z M 12.046875 12.957031 C 11.84375 12.875 11.679688 12.792969 11.515625 12.792969 C 11.390625 12.792969 11.269531 12.792969 11.226562 12.835938 C 11.1875 12.875 11.1875 12.917969 11.226562 13 C 11.269531 13.082031 11.308594 13.164062 11.351562 13.203125 C 11.390625 13.246094 11.433594 13.285156 11.472656 13.285156 C 11.597656 13.367188 11.761719 13.410156 11.882812 13.410156 C 11.964844 13.410156 12.007812 13.410156 12.089844 13.410156 C 12.089844 13.410156 12.089844 13.410156 12.128906 13.410156 C 12.128906 13.410156 12.171875 13.410156 12.171875 13.410156 C 12.253906 13.410156 12.292969 13.410156 12.335938 13.367188 C 12.375 13.367188 12.375 13.328125 12.417969 13.328125 C 12.417969 13.328125 12.457031 13.285156 12.457031 13.285156 C 12.457031 13.246094 12.457031 13.246094 12.417969 13.203125 C 12.375 13.164062 12.335938 13.082031 12.210938 13 C 12.171875 12.957031 12.128906 12.917969 12.046875 12.875 Z M 5.121094 7.015625 C 4.875 6.933594 4.628906 6.933594 4.339844 6.972656 C 3.890625 7.015625 3.359375 7.136719 2.90625 7.34375 C 2.414062 7.546875 1.964844 7.753906 1.71875 8 C 1.59375 8.121094 1.472656 8.246094 1.433594 8.367188 C 1.390625 8.449219 1.390625 8.53125 1.433594 8.574219 C 1.472656 8.613281 1.511719 8.695312 1.554688 8.738281 C 1.636719 8.777344 1.757812 8.820312 1.882812 8.820312 C 2.128906 8.820312 2.414062 8.738281 2.742188 8.613281 C 3.152344 8.449219 3.605469 8.246094 3.972656 8 C 4.339844 7.792969 4.667969 7.589844 4.875 7.34375 C 4.957031 7.261719 5.039062 7.179688 5.121094 7.054688 Z M 6.925781 15.214844 C 7.292969 15.335938 7.621094 15.417969 7.949219 15.5 C 7.785156 15.457031 7.660156 15.375 7.496094 15.292969 C 7.085938 15.089844 6.679688 14.886719 6.308594 14.679688 C 5.941406 14.476562 5.613281 14.3125 5.367188 14.1875 C 5.121094 14.066406 4.957031 14.023438 4.875 14.023438 C 4.875 14.023438 4.875 14.023438 4.832031 14.023438 C 4.832031 14.066406 4.875 14.105469 4.957031 14.148438 C 5.121094 14.3125 5.449219 14.515625 5.816406 14.722656 C 6.144531 14.886719 6.515625 15.089844 6.882812 15.214844 Z M 9.957031 16.238281 C 10.039062 16.320312 10.121094 16.359375 10.203125 16.402344 C 10.324219 16.484375 10.449219 16.566406 10.53125 16.605469 C 10.613281 16.648438 10.695312 16.648438 10.734375 16.648438 C 10.734375 16.648438 10.777344 16.648438 10.777344 16.648438 C 10.777344 16.648438 10.816406 16.648438 10.816406 16.605469 C 10.816406 16.605469 10.816406 16.605469 10.816406 16.566406 C 10.816406 16.523438 10.777344 16.484375 10.695312 16.402344 C 10.613281 16.320312 10.53125 16.277344 10.40625 16.195312 C 10.285156 16.15625 10.203125 16.113281 10.078125 16.074219 C 9.996094 16.074219 9.914062 16.074219 9.914062 16.074219 C 9.914062 16.074219 9.914062 16.113281 9.914062 16.113281 Z M 7.457031 13.246094 C 7.539062 13.328125 7.660156 13.449219 7.742188 13.53125 C 7.949219 13.492188 8.195312 13.492188 8.398438 13.449219 C 8.726562 13.410156 9.015625 13.410156 9.300781 13.449219 C 9.464844 13.492188 9.628906 13.492188 9.792969 13.53125 C 9.671875 13.449219 9.546875 13.367188 9.382812 13.285156 C 9.300781 13.246094 9.21875 13.203125 9.136719 13.121094 C 8.605469 12.792969 7.988281 12.386719 7.375 12.179688 C 7.046875 12.058594 6.679688 12.015625 6.390625 11.976562 C 6.472656 12.058594 6.554688 12.179688 6.636719 12.261719 C 6.84375 12.546875 7.128906 12.835938 7.414062 13.164062 Z M 6.1875 11.894531 C 6.023438 11.6875 5.898438 11.523438 5.777344 11.484375 C 5.734375 11.484375 5.695312 11.484375 5.652344 11.523438 C 5.652344 11.523438 5.613281 11.566406 5.613281 11.566406 C 5.613281 11.605469 5.613281 11.605469 5.613281 11.648438 C 5.613281 11.6875 5.652344 11.730469 5.734375 11.769531 C 5.816406 11.8125 5.980469 11.851562 6.144531 11.851562 Z M 6.1875 11.894531 "/></g><path style=" stroke:none;fill-rule:nonzero;fill:#000000;fill-opacity:1;" d="M 21.636719 16.769531 C 21.597656 16.769531 21.597656 16.730469 21.597656 16.730469 C 21.597656 16.6875 21.636719 16.6875 21.636719 16.6875 C 21.71875 16.6875 21.800781 16.6875 21.84375 16.648438 C 21.925781 16.648438 21.964844 16.605469 22.007812 16.523438 C 22.046875 16.441406 22.089844 16.359375 22.128906 16.238281 C 22.171875 16.074219 22.253906 15.910156 22.335938 15.828125 C 22.335938 15.828125 22.335938 15.828125 22.375 15.785156 C 22.292969 15.785156 22.253906 15.746094 22.171875 15.746094 C 22.046875 15.703125 21.882812 15.664062 21.761719 15.582031 C 21.554688 15.457031 21.433594 15.292969 21.308594 15.132812 C 21.226562 15.050781 21.1875 14.925781 21.105469 14.886719 C 20.980469 14.804688 20.859375 14.804688 20.695312 14.84375 C 20.613281 14.84375 20.574219 14.84375 20.492188 14.84375 C 20.367188 14.84375 20.203125 14.84375 20.039062 14.804688 C 19.875 14.761719 19.710938 14.761719 19.507812 14.722656 C 19.464844 14.722656 19.464844 14.679688 19.464844 14.640625 C 19.464844 14.597656 19.507812 14.597656 19.546875 14.597656 C 19.710938 14.640625 19.917969 14.679688 20.082031 14.679688 C 20.246094 14.722656 20.410156 14.722656 20.53125 14.722656 C 20.613281 14.722656 20.65625 14.722656 20.738281 14.722656 C 20.898438 14.679688 21.0625 14.679688 21.226562 14.804688 C 21.308594 14.886719 21.390625 14.96875 21.472656 15.089844 C 21.597656 15.253906 21.71875 15.417969 21.882812 15.539062 C 22.007812 15.621094 22.128906 15.664062 22.253906 15.703125 C 22.417969 15.746094 22.539062 15.746094 22.621094 15.746094 C 22.664062 15.746094 22.664062 15.746094 22.703125 15.746094 C 22.703125 15.746094 22.746094 15.746094 22.746094 15.746094 C 22.746094 15.746094 22.746094 15.746094 22.785156 15.746094 C 22.867188 15.785156 22.867188 15.828125 22.785156 15.867188 C 22.785156 15.867188 22.746094 15.867188 22.746094 15.867188 C 22.746094 15.867188 22.703125 15.867188 22.664062 15.867188 C 22.621094 15.867188 22.582031 15.910156 22.5 15.949219 C 22.417969 16.03125 22.375 16.195312 22.335938 16.320312 C 22.292969 16.441406 22.253906 16.566406 22.210938 16.648438 C 22.128906 16.769531 22.046875 16.8125 21.964844 16.851562 C 21.882812 16.894531 21.800781 16.894531 21.71875 16.894531 Z M 21.636719 16.769531 "/><path style=" stroke:none;fill-rule:nonzero;fill:#000000;fill-opacity:1;" d="M 19.546875 13.65625 C 19.507812 13.65625 19.507812 13.613281 19.507812 13.613281 C 19.507812 13.574219 19.546875 13.574219 19.546875 13.574219 L 20.574219 13.574219 C 20.613281 13.574219 20.613281 13.613281 20.613281 13.613281 C 20.613281 13.65625 20.574219 13.65625 20.574219 13.65625 Z M 19.546875 13.65625 "/></g></svg>