<svg xmlns="http://www.w3.org/2000/svg" xmlns:xlink="http://www.w3.org/1999/xlink" width="1080" zoomAndPan="magnify" viewBox="0 0 810 1439.999935" height="1920" preserveAspectRatio="xMidYMid meet" version="1.2"><defs><clipPath id="f6ca408207"><path d="M 213.53125 796 L 596 796 L 596 913 L 213.53125 913 Z M 213.53125 796 "/></clipPath><clipPath id="e789ce20bf"><path d="M 249 293.304688 L 571 293.304688 L 571 759 L 249 759 Z M 249 293.304688 "/></clipPath><clipPath id="8253132056"><path d="M 99.089844 645 L 729 645 L 729 1146.804688 L 99.089844 1146.804688 Z M 99.089844 645 "/></clipPath></defs><g id="e4981a3e59"><path style=" stroke:none;fill-rule:nonzero;fill:#ffffff;fill-opacity:1;" d="M 404.417969 527.949219 C 346.902344 527.949219 300.117188 575.054688 300.117188 632.839844 C 300.117188 680.582031 324.988281 729.59375 349.3125 767.191406 C 373.636719 804.792969 398.007812 831.074219 398.007812 831.074219 C 401.460938 834.753906 407.375 834.753906 410.828125 831.074219 C 410.828125 831.074219 435.199219 804.792969 459.523438 767.191406 C 483.847656 729.59375 508.71875 680.582031 508.71875 632.839844 C 508.71875 575.054688 461.933594 527.949219 404.417969 527.949219 Z M 404.417969 545.410156 C 452.476562 545.410156 491.257812 584.417969 491.257812 632.839844 C 491.257812 674.351562 468.34375 721.453125 444.882812 757.691406 C 426.558594 786.015625 411.554688 803.613281 404.417969 811.703125 C 397.28125 803.613281 382.277344 786.015625 363.953125 757.691406 C 340.492188 721.453125 317.578125 674.351562 317.578125 632.839844 C 317.578125 584.417969 356.359375 545.410156 404.417969 545.410156 Z M 404.417969 545.410156 "/><path style=" stroke:none;fill-rule:nonzero;fill:#ffffff;fill-opacity:1;" d="M 404.417969 580.328125 C 374.183594 580.328125 349.539062 605.152344 349.539062 635.476562 C 349.539062 665.804688 374.183594 690.628906 404.417969 690.628906 C 434.652344 690.628906 459.296875 665.804688 459.296875 635.476562 C 459.296875 605.152344 434.652344 580.328125 404.417969 580.328125 Z M 404.417969 597.785156 C 425.152344 597.785156 441.835938 614.519531 441.835938 635.476562 C 441.835938 656.4375 425.152344 673.167969 404.417969 673.167969 C 383.683594 673.167969 367 656.4375 367 635.476562 C 367 614.519531 383.683594 597.785156 404.417969 597.785156 Z M 404.417969 597.785156 "/><g clip-rule="nonzero" clip-path="url(#f6ca408207)"><path style=" stroke:none;fill-rule:nonzero;fill:#ffffff;fill-opacity:1;" d="M 262.425781 796.609375 C 247.96875 802.15625 236.238281 808.566406 227.644531 816.160156 C 219.007812 823.707031 213.234375 833.074219 213.234375 843.53125 C 213.234375 855.398438 220.507812 865.628906 230.964844 873.71875 C 241.421875 881.8125 255.5625 888.496094 272.703125 894.089844 C 306.9375 905.320312 353.269531 912.046875 404.417969 912.046875 C 455.566406 912.046875 501.898438 905.320312 536.132812 894.089844 C 553.273438 888.496094 567.414062 881.8125 577.871094 873.71875 C 588.328125 865.628906 595.601562 855.398438 595.601562 843.53125 C 595.601562 833.164062 589.917969 823.84375 581.417969 816.296875 C 572.914062 808.75 561.367188 802.382812 547.046875 796.835938 C 542.542969 795.0625 537.496094 797.292969 535.769531 801.792969 C 533.996094 806.292969 536.222656 811.339844 540.726562 813.113281 C 553.730469 818.160156 563.640625 823.890625 569.824219 829.34375 C 576.007812 834.847656 578.144531 839.53125 578.144531 843.53125 C 578.144531 848.167969 575.1875 853.667969 567.1875 859.898438 C 559.140625 866.082031 546.589844 872.3125 530.722656 877.492188 C 498.941406 887.90625 454.023438 894.589844 404.417969 894.589844 C 354.816406 894.589844 309.894531 887.90625 278.113281 877.492188 C 262.246094 872.3125 249.695312 866.082031 241.648438 859.898438 C 233.648438 853.667969 230.691406 848.167969 230.691406 843.53125 C 230.691406 839.484375 232.875 834.753906 239.148438 829.253906 C 245.46875 823.707031 255.515625 817.933594 268.703125 812.886719 C 273.203125 811.160156 275.429688 806.113281 273.703125 801.609375 C 271.746094 797.0625 266.109375 794.972656 262.425781 796.609375 Z M 262.425781 796.609375 "/></g><path style=" stroke:none;fill-rule:nonzero;fill:#ffffff;fill-opacity:1;" d="M 327.308594 775.558594 C 314.304688 779.921875 303.757812 785.289062 295.9375 791.882812 C 288.117188 798.472656 282.75 806.886719 282.75 816.433594 C 282.75 825.480469 287.570312 833.484375 294.480469 839.710938 C 301.390625 845.941406 310.53125 850.988281 321.441406 855.171875 C 343.265625 863.492188 372.320312 868.402344 404.417969 868.402344 C 436.515625 868.402344 465.570312 863.492188 487.394531 855.171875 C 498.304688 850.988281 507.445312 845.941406 514.355469 839.710938 C 521.265625 833.484375 526.085938 825.480469 526.085938 816.433594 C 526.085938 806.886719 520.71875 798.472656 512.898438 791.882812 C 505.078125 785.289062 494.53125 779.921875 481.527344 775.558594 C 476.980469 774.011719 472.027344 776.515625 470.480469 781.058594 C 468.933594 785.652344 471.433594 790.609375 475.980469 792.109375 C 487.53125 795.972656 496.257812 800.703125 501.625 805.203125 C 506.988281 809.703125 508.625 813.476562 508.625 816.433594 C 508.625 819.296875 507.171875 822.660156 502.625 826.800781 C 498.078125 830.890625 490.667969 835.210938 481.164062 838.847656 C 462.113281 846.167969 434.699219 850.941406 404.417969 850.941406 C 374.136719 850.941406 346.722656 846.167969 327.671875 838.847656 C 318.167969 835.210938 310.757812 830.890625 306.210938 826.800781 C 301.664062 822.660156 300.210938 819.296875 300.210938 816.433594 C 300.210938 813.476562 301.847656 809.703125 307.210938 805.203125 C 312.53125 800.703125 321.304688 795.972656 332.855469 792.109375 C 337.402344 790.609375 339.902344 785.652344 338.355469 781.058594 C 336.71875 776.46875 331.308594 774.148438 327.308594 775.558594 Z M 327.308594 775.558594 "/><g clip-rule="nonzero" clip-path="url(#e789ce20bf)"><path style=" stroke:none;fill-rule:nonzero;fill:#130d0e;fill-opacity:1;" d="M 409.953125 564.261719 C 348.863281 564.261719 299.335938 514.738281 299.335938 453.671875 C 299.335938 392.585938 348.863281 343.0625 409.953125 343.0625 C 471.011719 343.0625 520.539062 392.585938 520.539062 453.671875 C 520.539062 514.738281 471.011719 564.261719 409.953125 564.261719 Z M 409.953125 293.300781 C 321.375 293.300781 249.574219 365.097656 249.574219 453.671875 C 249.574219 472.949219 252.996094 491.453125 259.25 508.605469 L 259.226562 508.605469 C 259.746094 510.019531 260.382812 511.648438 261.136719 513.441406 C 264.109375 520.851562 267.625 527.976562 271.613281 534.769531 C 295.65625 580.046875 347.09375 663.105469 392.019531 737.238281 C 392.089844 737.40625 392.183594 737.570312 392.277344 737.734375 L 402.449219 754.5625 C 402.542969 754.726562 402.660156 754.890625 402.800781 755.054688 C 406.269531 760.058594 413.796875 760.011719 417.195312 754.914062 C 417.289062 754.796875 417.359375 754.679688 417.429688 754.5625 L 427.601562 737.734375 C 427.644531 737.664062 427.695312 737.570312 427.71875 737.5 C 447.1875 705.410156 467.851562 671.621094 486.992188 639.957031 C 512.117188 598.40625 534.601562 560.488281 548.265625 534.769531 C 552.253906 527.976562 555.773438 520.851562 558.742188 513.441406 C 559.496094 511.648438 560.15625 510.019531 560.652344 508.605469 C 566.882812 491.453125 570.300781 472.949219 570.300781 453.671875 C 570.300781 365.097656 498.503906 293.300781 409.953125 293.300781 "/></g><g clip-rule="nonzero" clip-path="url(#8253132056)"><path style=" stroke:none;fill-rule:nonzero;fill:#130d0e;fill-opacity:1;" d="M 705.574219 875 L 624.410156 875 L 624.410156 669.101562 C 624.410156 656.113281 613.929688 645.59375 601.003906 645.59375 L 530.621094 645.59375 C 528.742188 645.59375 527.21875 647.121094 527.21875 649.011719 L 500 689.191406 C 500 691.078125 501.523438 692.613281 503.40625 692.613281 L 577.59375 692.613281 L 577.59375 1099.667969 L 455.851562 1099.667969 L 455.851562 995.902344 C 455.851562 993.695312 454.078125 991.914062 451.878906 991.914062 L 371.660156 991.914062 C 369.46875 991.914062 367.6875 993.695312 367.6875 995.902344 L 367.6875 1099.667969 L 245.941406 1099.667969 L 245.941406 692.613281 L 320.136719 692.613281 C 322.019531 692.613281 323.542969 691.078125 323.542969 689.191406 L 296.324219 649.011719 C 296.324219 647.121094 294.800781 645.59375 292.917969 645.59375 L 222.535156 645.59375 C 209.609375 645.59375 199.128906 656.113281 199.128906 669.101562 L 199.128906 875 L 122.503906 875 C 109.574219 875 99.09375 885.527344 99.09375 898.511719 L 99.09375 1123.179688 C 99.09375 1136.164062 109.574219 1146.691406 122.503906 1146.691406 L 705.574219 1146.691406 C 718.503906 1146.691406 728.988281 1136.164062 728.988281 1123.179688 L 728.988281 898.511719 C 728.988281 885.527344 718.503906 875 705.574219 875 "/></g><path style=" stroke:none;fill-rule:nonzero;fill:#130d0e;fill-opacity:1;" d="M 390.847656 933.863281 L 429.027344 933.863281 C 431.730469 933.863281 433.925781 931.660156 433.925781 928.949219 L 433.925781 879.84375 C 433.925781 877.128906 431.730469 874.925781 429.027344 874.925781 L 390.847656 874.925781 C 388.144531 874.925781 385.953125 877.128906 385.953125 879.84375 L 385.953125 928.949219 C 385.953125 931.660156 388.144531 933.863281 390.847656 933.863281 "/><path style=" stroke:none;fill-rule:nonzero;fill:#130d0e;fill-opacity:1;" d="M 484.769531 933.863281 L 522.941406 933.863281 C 525.648438 933.863281 527.839844 931.660156 527.839844 928.949219 L 527.839844 879.84375 C 527.839844 877.128906 525.648438 874.925781 522.941406 874.925781 L 484.769531 874.925781 C 482.0625 874.925781 479.867188 877.128906 479.867188 879.84375 L 479.867188 928.949219 C 479.867188 931.660156 482.0625 933.863281 484.769531 933.863281 "/><path style=" stroke:none;fill-rule:nonzero;fill:#130d0e;fill-opacity:1;" d="M 390.847656 841.664062 L 429.027344 841.664062 C 431.730469 841.664062 433.925781 839.464844 433.925781 836.75 L 433.925781 787.644531 C 433.925781 784.929688 431.730469 782.730469 429.027344 782.730469 L 390.847656 782.730469 C 388.144531 782.730469 385.953125 784.929688 385.953125 787.644531 L 385.953125 836.75 C 385.953125 839.464844 388.144531 841.664062 390.847656 841.664062 "/><path style=" stroke:none;fill-rule:nonzero;fill:#130d0e;fill-opacity:1;" d="M 335.875 874.925781 L 297.695312 874.925781 C 294.992188 874.925781 292.800781 877.128906 292.800781 879.84375 L 292.800781 928.949219 C 292.800781 931.660156 294.992188 933.863281 297.695312 933.863281 L 335.875 933.863281 C 338.578125 933.863281 340.769531 931.660156 340.769531 928.949219 L 340.769531 879.84375 C 340.769531 877.128906 338.578125 874.925781 335.875 874.925781 "/><path style=" stroke:none;fill-rule:nonzero;fill:#130d0e;fill-opacity:1;" d="M 292.800781 787.644531 L 292.800781 836.75 C 292.800781 839.464844 294.992188 841.664062 297.695312 841.664062 L 335.875 841.664062 C 338.578125 841.664062 340.769531 839.464844 340.769531 836.75 L 340.769531 787.644531 C 340.769531 784.929688 338.578125 782.730469 335.875 782.730469 L 297.695312 782.730469 C 294.992188 782.730469 292.800781 784.929688 292.800781 787.644531 "/><path style=" stroke:none;fill-rule:nonzero;fill:#130d0e;fill-opacity:1;" d="M 484.769531 841.664062 L 522.941406 841.664062 C 525.648438 841.664062 527.839844 839.464844 527.839844 836.75 L 527.839844 787.644531 C 527.839844 784.929688 525.648438 782.730469 522.941406 782.730469 L 484.769531 782.730469 C 482.0625 782.730469 479.867188 784.929688 479.867188 787.644531 L 479.867188 836.75 C 479.867188 839.464844 482.0625 841.664062 484.769531 841.664062 "/></g></svg>