<svg xmlns="http://www.w3.org/2000/svg" xmlns:xlink="http://www.w3.org/1999/xlink" width="1080" zoomAndPan="magnify" viewBox="0 0 810 1439.999935" height="1920" preserveAspectRatio="xMidYMid meet" version="1.2"><defs><clipPath id="6f791a9d0d"><path d="M 266 450.664062 L 700 450.664062 L 700 873.664062 L 266 873.664062 Z M 266 450.664062 "/></clipPath></defs><g id="b318a24cde"><path style=" stroke:none;fill-rule:nonzero;fill:#000000;fill-opacity:1;" d="M 2.523438 867.800781 L 133.324219 867.808594 L 131.28125 869.851562 L 131.152344 656.1875 C 131.152344 655.808594 131.257812 655.433594 131.457031 655.109375 L 204.324219 537.535156 C 204.882812 536.636719 206.03125 536.3125 206.976562 536.78125 L 325.527344 595.921875 C 326.207031 596.261719 326.644531 596.953125 326.65625 597.714844 L 331.394531 870.625 L 329.347656 868.617188 L 807.792969 867.996094 C 808.921875 867.996094 809.839844 868.90625 809.839844 870.035156 C 809.84375 871.164062 808.929688 872.082031 807.800781 872.082031 L 329.351562 872.703125 C 328.238281 872.707031 327.324219 871.8125 327.304688 870.695312 L 322.570312 597.785156 L 323.699219 599.578125 L 205.148438 540.4375 L 207.800781 539.6875 L 134.933594 657.261719 L 135.242188 656.183594 L 135.367188 869.851562 C 135.371094 870.390625 135.152344 870.914062 134.769531 871.296875 C 134.386719 871.679688 133.867188 871.894531 133.324219 871.894531 L 2.523438 871.886719 C 1.394531 871.886719 0.480469 870.972656 0.480469 869.84375 C 0.480469 868.714844 1.394531 867.800781 2.523438 867.800781 Z M 2.523438 867.800781 "/><g clip-rule="nonzero" clip-path="url(#6f791a9d0d)"><path style=" stroke:none;fill-rule:nonzero;fill:#000000;fill-opacity:1;" d="M 329.816406 872.796875 L 272.8125 873.417969 C 271.683594 873.429688 270.761719 872.527344 270.746094 871.402344 L 266.253906 516.742188 C 266.246094 515.988281 266.648438 515.292969 267.304688 514.929688 L 382.695312 450.917969 C 383.238281 450.613281 383.894531 450.578125 384.46875 450.816406 L 554.671875 521.535156 C 555.429688 521.851562 555.925781 522.589844 555.929688 523.414062 L 557.167969 836.402344 C 557.171875 836.945312 556.957031 837.464844 556.574219 837.851562 C 556.191406 838.234375 555.667969 838.453125 555.125 838.453125 L 497.933594 838.472656 C 496.8125 838.472656 495.898438 837.570312 495.886719 836.449219 L 494.539062 689.191406 C 494.53125 688.445312 494.933594 687.753906 495.585938 687.390625 L 622.714844 616.304688 C 623.339844 615.957031 624.097656 615.960938 624.71875 616.3125 C 625.339844 616.664062 625.734375 617.3125 625.757812 618.023438 L 628.085938 692.132812 L 626.746094 690.28125 L 696.738281 715.925781 C 697.539062 716.21875 698.070312 716.976562 698.078125 717.828125 L 699.296875 868.242188 C 699.308594 869.371094 698.398438 870.292969 697.269531 870.300781 C 696.140625 870.3125 695.21875 869.402344 695.207031 868.273438 L 693.988281 717.863281 L 695.328125 719.761719 L 625.339844 694.117188 C 624.558594 693.828125 624.027344 693.09375 624 692.261719 L 621.667969 618.152344 L 624.710938 619.875 L 497.582031 690.957031 L 498.628906 689.15625 L 499.976562 836.410156 L 497.929688 834.386719 L 555.125 834.367188 L 553.082031 836.417969 L 551.839844 523.429688 L 553.101562 525.308594 L 382.902344 454.589844 L 384.679688 454.492188 L 269.289062 518.5 L 270.34375 516.6875 L 274.835938 871.351562 L 272.769531 869.332031 L 329.773438 868.710938 C 330.902344 868.699219 331.828125 869.601562 331.839844 870.730469 C 331.851562 871.859375 330.945312 872.785156 329.816406 872.796875 Z M 329.816406 872.796875 "/></g><path style=" stroke:none;fill-rule:nonzero;fill:#000000;fill-opacity:1;" d="M 385.78125 454.480469 L 393.070312 869.542969 C 393.089844 870.667969 392.191406 871.601562 391.0625 871.621094 C 389.933594 871.640625 389 870.742188 388.980469 869.613281 L 381.691406 454.550781 C 381.671875 453.421875 382.570312 452.492188 383.699219 452.472656 C 384.828125 452.453125 385.761719 453.351562 385.78125 454.480469 Z M 385.78125 454.480469 "/></g></svg>