<svg xmlns="http://www.w3.org/2000/svg" xmlns:xlink="http://www.w3.org/1999/xlink" width="40" zoomAndPan="magnify" viewBox="0 0 30 30.000001" height="40" preserveAspectRatio="xMidYMid meet" version="1.2"><defs><clipPath id="6f07c7d6c9"><path d="M 0.484375 6 L 11 6 L 11 23 L 0.484375 23 Z M 0.484375 6 "/></clipPath><clipPath id="ba2843e0f8"><path d="M 2 5.207031 L 28 5.207031 L 28 17 L 2 17 Z M 2 5.207031 "/></clipPath><clipPath id="e1b1d88569"><path d="M 19 6 L 29.515625 6 L 29.515625 23 L 19 23 Z M 19 6 "/></clipPath></defs><g id="8683c84c77"><path style=" stroke:none;fill-rule:nonzero;fill:#808080;fill-opacity:1;" d="M 27.914062 23.484375 L 18.800781 15.917969 C 18.535156 15.695312 18.148438 15.695312 17.882812 15.917969 L 15.429688 17.957031 C 15.183594 18.160156 14.824219 18.160156 14.578125 17.957031 L 12.121094 15.917969 C 11.855469 15.695312 11.46875 15.695312 11.203125 15.917969 L 2.09375 23.484375 C 1.96875 23.585938 2.039062 23.789062 2.203125 23.789062 L 27.804688 23.789062 C 27.964844 23.789062 28.039062 23.585938 27.914062 23.484375 "/><g clip-rule="nonzero" clip-path="url(#6f07c7d6c9)"><path style=" stroke:none;fill-rule:nonzero;fill:#808080;fill-opacity:1;" d="M 10.066406 14.210938 L 0.773438 6.492188 C 0.660156 6.398438 0.488281 6.480469 0.488281 6.628906 L 0.488281 22.394531 C 0.488281 22.542969 0.660156 22.625 0.773438 22.53125 L 10.066406 14.8125 C 10.253906 14.65625 10.253906 14.367188 10.066406 14.210938 "/></g><g clip-rule="nonzero" clip-path="url(#ba2843e0f8)"><path style=" stroke:none;fill-rule:nonzero;fill:#808080;fill-opacity:1;" d="M 2.09375 5.539062 L 14.65625 15.972656 C 14.855469 16.140625 15.148438 16.140625 15.351562 15.972656 L 27.914062 5.539062 C 28.039062 5.4375 27.964844 5.234375 27.804688 5.234375 L 2.203125 5.234375 C 2.039062 5.234375 1.96875 5.4375 2.09375 5.539062 "/></g><g clip-rule="nonzero" clip-path="url(#e1b1d88569)"><path style=" stroke:none;fill-rule:nonzero;fill:#808080;fill-opacity:1;" d="M 29.234375 6.492188 L 19.941406 14.210938 C 19.75 14.367188 19.75 14.65625 19.941406 14.8125 L 29.234375 22.53125 C 29.347656 22.625 29.519531 22.542969 29.519531 22.394531 L 29.519531 6.628906 C 29.519531 6.480469 29.347656 6.398438 29.234375 6.492188 "/></g></g></svg>