<svg xmlns="http://www.w3.org/2000/svg" xmlns:xlink="http://www.w3.org/1999/xlink" width="40" zoomAndPan="magnify" viewBox="0 0 30 30.000001" height="40" preserveAspectRatio="xMidYMid meet" version="1.2"><g id="e3f39b5f21"><path style=" stroke:none;fill-rule:nonzero;fill:#808080;fill-opacity:1;" d="M 15.371094 0.00390625 C 21.292969 0.0625 26.414062 4.019531 27.921875 9.746094 C 29.507812 15.765625 26.460938 22.210938 20.753906 24.738281 C 16.582031 26.589844 12.5 26.304688 8.5625 23.980469 C 8.464844 23.921875 8.296875 23.90625 8.191406 23.945312 C 6.488281 24.558594 4.789062 25.179688 3.089844 25.800781 C 3.054688 25.8125 3.019531 25.839844 2.988281 25.835938 C 2.835938 25.828125 2.644531 25.859375 2.542969 25.777344 C 2.476562 25.722656 2.492188 25.492188 2.546875 25.371094 C 2.894531 24.566406 3.265625 23.769531 3.628906 22.96875 C 3.980469 22.195312 4.328125 21.421875 4.691406 20.652344 C 4.765625 20.488281 4.75 20.375 4.652344 20.230469 C 1.328125 15.277344 1.738281 8.863281 5.6875 4.398438 C 7.738281 2.078125 10.324219 0.6875 13.378906 0.191406 C 14.035156 0.0859375 14.707031 0.0664062 15.371094 0.00390625 Z M 19.785156 20.222656 C 20.042969 20.160156 20.292969 20.140625 20.5 20.042969 C 21.46875 19.59375 22.160156 18.851562 22.582031 17.878906 C 22.789062 17.398438 22.722656 16.90625 22.320312 16.539062 C 21.425781 15.734375 20.46875 15.011719 19.386719 14.472656 C 18.816406 14.191406 18.136719 14.332031 17.707031 14.804688 C 17.527344 15 17.355469 15.203125 17.191406 15.410156 C 17.042969 15.601562 16.851562 15.652344 16.632812 15.609375 C 16.472656 15.574219 16.316406 15.527344 16.164062 15.460938 C 15.148438 15.046875 14.324219 14.375 13.625 13.542969 C 13.179688 13.011719 12.832031 12.429688 12.707031 11.730469 C 12.65625 11.449219 12.730469 11.230469 12.964844 11.058594 C 13.148438 10.925781 13.324219 10.773438 13.5 10.628906 C 14.109375 10.136719 14.246094 9.640625 13.894531 8.9375 C 13.367188 7.871094 12.640625 6.9375 11.773438 6.125 C 11.304688 5.6875 10.636719 5.613281 10.121094 5.960938 C 9.59375 6.316406 9.089844 6.714844 8.605469 7.132812 C 8.109375 7.558594 7.992188 8.132812 8.148438 8.757812 C 8.445312 9.953125 8.988281 11.042969 9.617188 12.085938 C 11.835938 15.742188 14.949219 18.359375 18.90625 19.976562 C 19.1875 20.089844 19.496094 20.144531 19.785156 20.222656 Z M 19.785156 20.222656 "/><path style=" stroke:none;fill-rule:nonzero;fill:#ffffff;fill-opacity:1;" d="M 19.785156 20.222656 C 19.496094 20.144531 19.1875 20.089844 18.90625 19.976562 C 14.949219 18.359375 11.835938 15.742188 9.617188 12.085938 C 8.988281 11.042969 8.445312 9.953125 8.148438 8.757812 C 7.992188 8.132812 8.109375 7.558594 8.605469 7.132812 C 9.089844 6.714844 9.59375 6.316406 10.121094 5.960938 C 10.636719 5.613281 11.304688 5.6875 11.773438 6.125 C 12.640625 6.9375 13.367188 7.871094 13.894531 8.9375 C 14.246094 9.640625 14.109375 10.136719 13.5 10.628906 C 13.324219 10.773438 13.148438 10.925781 12.964844 11.058594 C 12.726562 11.230469 12.65625 11.449219 12.707031 11.730469 C 12.832031 12.429688 13.179688 13.011719 13.625 13.542969 C 14.324219 14.375 15.148438 15.046875 16.164062 15.464844 C 16.316406 15.527344 16.472656 15.574219 16.632812 15.609375 C 16.851562 15.652344 17.042969 15.601562 17.191406 15.410156 C 17.355469 15.203125 17.527344 15 17.707031 14.804688 C 18.136719 14.332031 18.816406 14.191406 19.386719 14.472656 C 20.46875 15.011719 21.425781 15.734375 22.320312 16.539062 C 22.722656 16.90625 22.789062 17.398438 22.582031 17.878906 C 22.160156 18.851562 21.46875 19.59375 20.5 20.042969 C 20.292969 20.140625 20.042969 20.160156 19.785156 20.222656 Z M 19.785156 20.222656 "/></g></svg>